<svg width="16" height="13" viewBox="0 0 16 13" fill="none" xmlns="http://www.w3.org/2000/svg">
<path d="M8.00735 9.71774C8.76634 9.71774 9.41667 9.40038 9.95833 8.76565C10.5 8.13093 10.7708 7.37286 10.7708 6.49146C10.7708 5.61006 10.4975 4.85484 9.95098 4.22581C9.40441 3.59677 8.75163 3.28226 7.99265 3.28226C7.23366 3.28226 6.58333 3.59962 6.04167 4.23435C5.5 4.86907 5.22917 5.62714 5.22917 6.50854C5.22917 7.38994 5.50245 8.14516 6.04902 8.77419C6.59559 9.40323 7.24837 9.71774 8.00735 9.71774ZM7.99142 9.1371C7.35825 9.1371 6.82292 8.87974 6.38542 8.36503C5.94792 7.85034 5.72917 7.22534 5.72917 6.49003C5.72917 5.75474 5.95078 5.13306 6.394 4.625C6.83722 4.11694 7.37542 3.8629 8.00858 3.8629C8.64175 3.8629 9.17708 4.12026 9.61458 4.63497C10.0521 5.14968 10.2708 5.77468 10.2708 6.50997C10.2708 7.24526 10.0492 7.86694 9.606 8.375C9.16278 8.88306 8.62458 9.1371 7.99142 9.1371ZM8.00298 12.5C6.27877 12.5 4.70139 11.9556 3.27083 10.8669C1.84028 9.77823 0.75 8.32258 0 6.5C0.75 4.67742 1.83928 3.22177 3.26785 2.13306C4.69642 1.04435 6.27281 0.5 7.99702 0.5C9.72123 0.5 11.2986 1.04435 12.7292 2.13306C14.1597 3.22177 15.25 4.67742 16 6.5C15.25 8.32258 14.1607 9.77823 12.7321 10.8669C11.3036 11.9556 9.72719 12.5 8.00298 12.5ZM7.99648 11.9677C9.60994 11.9677 11.0868 11.4758 12.4271 10.4919C13.7674 9.50806 14.7917 8.17742 15.5 6.5C14.7917 4.82258 13.7685 3.49194 12.4306 2.50806C11.0927 1.52419 9.61697 1.03226 8.00352 1.03226C6.39006 1.03226 4.91319 1.52419 3.57292 2.50806C2.23264 3.49194 1.20833 4.82258 0.5 6.5C1.20833 8.17742 2.23147 9.50806 3.5694 10.4919C4.90734 11.4758 6.38303 11.9677 7.99648 11.9677Z" fill="black"/>
</svg>
