<svg width="95" height="100" viewBox="0 0 95 100" fill="none" xmlns="http://www.w3.org/2000/svg">
<path d="M14.9365 100V78.5C10.2066 74.1667 6.53472 69.1042 3.92083 63.3125C1.30694 57.5208 0 51.4167 0 45C0 32.5 4.35648 21.875 13.0694 13.125C21.7824 4.375 32.3624 0 44.8095 0C55.1821 0 64.3722 3.0625 72.3798 9.1875C80.3874 15.3125 85.5945 23.2917 88.0009 33.125L94.8468 60.375C95.1787 61.5417 94.9713 62.6042 94.2244 63.5625C93.4776 64.5208 92.4819 65 91.2372 65H79.6614V82.5C79.6614 84.5833 78.9353 86.3542 77.4831 87.8125C76.031 89.2708 74.2676 90 72.1931 90H59.746V100H14.9365ZM44.8095 70C46.2202 70 47.4027 69.5208 48.3569 68.5625C49.3112 67.6042 49.7883 66.4167 49.7883 65C49.7883 63.5833 49.3112 62.3958 48.3569 61.4375C47.4027 60.4792 46.2202 60 44.8095 60C43.3988 60 42.2164 60.4792 41.2621 61.4375C40.3078 62.3958 39.8307 63.5833 39.8307 65C39.8307 66.4167 40.3078 67.6042 41.2621 68.5625C42.2164 69.5208 43.3988 70 44.8095 70ZM41.0754 54H48.6681C48.6681 51.9167 48.9378 50.2292 49.4772 48.9375C50.0165 47.6458 51.116 46.0833 52.7757 44.25C54.2693 42.5833 55.7215 40.8958 57.1321 39.1875C58.5428 37.4792 59.2481 35.25 59.2481 32.5C59.2481 29 57.8997 26.0417 55.2028 23.625C52.506 21.2083 49.166 20 45.1829 20C41.8637 20 38.8557 20.9583 36.1588 22.875C33.4619 24.7917 31.5741 27.2917 30.4954 30.375L37.3413 33.25C37.9221 31.4167 38.9386 29.9375 40.3908 28.8125C41.843 27.6875 43.4403 27.125 45.1829 27.125C47.0085 27.125 48.5229 27.625 49.7261 28.625C50.9293 29.625 51.5309 30.9167 51.5309 32.5C51.5309 34.25 51.0123 35.8125 49.9751 37.1875C48.9378 38.5625 47.7138 39.9583 46.3032 41.375C44.6436 43.125 43.3574 44.875 42.4446 46.625C41.5318 48.375 41.0754 50.8333 41.0754 54Z" fill="#33BDBE"/>
</svg>
