<svg width="190" height="892" viewBox="0 0 190 892" fill="none" xmlns="http://www.w3.org/2000/svg">
<g filter="url(#filter0_d_12_2378)">
<rect width="174" height="876" transform="translate(8 4)" fill="white"/>
<path d="M48.8005 415C48.5619 414.131 48.2125 413.317 47.7522 412.558C47.292 411.791 46.721 411.122 46.0392 410.551C45.3659 409.972 44.586 409.52 43.6997 409.196C42.8218 408.872 41.8417 408.71 40.7593 408.71C39.0548 408.71 37.5292 409.153 36.1826 410.04C34.836 410.926 33.7707 412.205 32.9866 413.875C32.211 415.545 31.8233 417.557 31.8233 419.909C31.8233 422.253 32.2153 424.26 32.9994 425.93C33.7835 427.601 34.8574 428.884 36.221 429.778C37.5931 430.665 39.1613 431.108 40.9255 431.108C42.5363 431.108 43.9596 430.75 45.1954 430.034C46.4312 429.318 47.3943 428.295 48.0846 426.966C48.7835 425.636 49.1244 424.055 49.1074 422.223L49.8744 422.466H41.488V420.318H51.4341V422.466C51.4341 424.699 50.9824 426.629 50.0789 428.257C49.1755 429.885 47.9355 431.142 46.3588 432.028C44.7821 432.915 42.971 433.358 40.9255 433.358C38.6414 433.358 36.6429 432.808 34.9298 431.709C33.2167 430.601 31.8829 429.041 30.9284 427.03C29.9824 425.01 29.5093 422.636 29.5093 419.909C29.5093 417.855 29.7821 416.001 30.3275 414.348C30.873 412.695 31.6443 411.28 32.6414 410.104C33.6471 408.928 34.836 408.028 36.2082 407.406C37.5804 406.776 39.0974 406.46 40.7593 406.46C42.1912 406.46 43.4994 406.686 44.6841 407.138C45.8772 407.589 46.9255 408.212 47.8289 409.004C48.7409 409.788 49.4866 410.696 50.0662 411.727C50.6542 412.75 51.0505 413.841 51.2551 415H48.8005ZM65.4282 433.409C63.7321 433.409 62.2321 432.979 60.9282 432.118C59.6327 431.257 58.6185 430.068 57.8855 428.551C57.1526 427.026 56.7861 425.266 56.7861 423.271C56.7861 421.26 57.1526 419.491 57.8855 417.966C58.6185 416.432 59.6327 415.239 60.9282 414.386C62.2321 413.526 63.7321 413.095 65.4282 413.095C67.1242 413.095 68.6199 413.526 69.9154 414.386C71.2108 415.247 72.225 416.44 72.958 417.966C73.6995 419.491 74.0702 421.26 74.0702 423.271C74.0702 425.266 73.7037 427.026 72.9708 428.551C72.2378 430.068 71.2194 431.257 69.9154 432.118C68.6199 432.979 67.1242 433.409 65.4282 433.409ZM65.4282 431.325C66.7918 431.325 67.9466 430.959 68.8927 430.226C69.8387 429.493 70.5546 428.517 71.0404 427.298C71.5347 426.08 71.7819 424.737 71.7819 423.271C71.7819 421.805 71.5347 420.459 71.0404 419.232C70.5546 418.004 69.8387 417.02 68.8927 416.278C67.9466 415.537 66.7918 415.166 65.4282 415.166C64.073 415.166 62.9182 415.537 61.9637 416.278C61.0177 417.02 60.2975 418.004 59.8032 419.232C59.3174 420.459 59.0745 421.805 59.0745 423.271C59.0745 424.737 59.3174 426.08 59.8032 427.298C60.2975 428.517 61.0177 429.493 61.9637 430.226C62.9097 430.959 64.0645 431.325 65.4282 431.325ZM87.5977 433.409C85.9017 433.409 84.4017 432.979 83.0977 432.118C81.8022 431.257 80.788 430.068 80.0551 428.551C79.3221 427.026 78.9556 425.266 78.9556 423.271C78.9556 421.26 79.3221 419.491 80.0551 417.966C80.788 416.432 81.8022 415.239 83.0977 414.386C84.4017 413.526 85.9017 413.095 87.5977 413.095C89.2937 413.095 90.7895 413.526 92.0849 414.386C93.3804 415.247 94.3946 416.44 95.1275 417.966C95.869 419.491 96.2397 421.26 96.2397 423.271C96.2397 425.266 95.8733 427.026 95.1403 428.551C94.4074 430.068 93.3889 431.257 92.0849 432.118C90.7895 432.979 89.2937 433.409 87.5977 433.409ZM87.5977 431.325C88.9613 431.325 90.1162 430.959 91.0622 430.226C92.0082 429.493 92.7241 428.517 93.2099 427.298C93.7042 426.08 93.9514 424.737 93.9514 423.271C93.9514 421.805 93.7042 420.459 93.2099 419.232C92.7241 418.004 92.0082 417.02 91.0622 416.278C90.1162 415.537 88.9613 415.166 87.5977 415.166C86.2426 415.166 85.0878 415.537 84.1332 416.278C83.1872 417.02 82.467 418.004 81.9727 419.232C81.4869 420.459 81.244 421.805 81.244 423.271C81.244 424.737 81.4869 426.08 81.9727 427.298C82.467 428.517 83.1872 429.493 84.1332 430.226C85.0792 430.959 86.2341 431.325 87.5977 431.325ZM109.627 440.773C108.289 440.773 107.117 440.598 106.111 440.249C105.105 439.908 104.257 439.439 103.567 438.842C102.877 438.246 102.34 437.577 101.956 436.835L103.823 435.608C104.104 436.102 104.479 436.588 104.948 437.065C105.425 437.543 106.043 437.939 106.801 438.254C107.568 438.57 108.51 438.727 109.627 438.727C111.365 438.727 112.767 438.293 113.833 437.423C114.906 436.554 115.443 435.203 115.443 433.371V428.947H115.239C114.975 429.544 114.595 430.141 114.101 430.737C113.607 431.325 112.959 431.815 112.158 432.207C111.365 432.599 110.381 432.795 109.205 432.795C107.637 432.795 106.243 432.408 105.024 431.632C103.814 430.857 102.86 429.749 102.161 428.308C101.47 426.859 101.125 425.134 101.125 423.131C101.125 421.145 101.462 419.398 102.135 417.889C102.817 416.381 103.767 415.205 104.986 414.361C106.205 413.517 107.624 413.095 109.243 413.095C110.445 413.095 111.442 413.308 112.235 413.734C113.027 414.152 113.662 414.672 114.139 415.294C114.625 415.916 115.004 416.521 115.277 417.109H115.507V413.364H117.732V433.511C117.732 435.173 117.378 436.541 116.671 437.615C115.963 438.689 115 439.482 113.781 439.993C112.563 440.513 111.178 440.773 109.627 440.773ZM109.473 430.712C110.735 430.712 111.813 430.409 112.708 429.804C113.602 429.19 114.289 428.312 114.766 427.17C115.243 426.028 115.482 424.669 115.482 423.092C115.482 421.558 115.247 420.199 114.779 419.014C114.31 417.821 113.628 416.884 112.733 416.202C111.847 415.511 110.76 415.166 109.473 415.166C108.161 415.166 107.053 415.52 106.149 416.227C105.246 416.935 104.564 417.889 104.104 419.091C103.644 420.284 103.414 421.618 103.414 423.092C103.414 424.592 103.648 425.918 104.117 427.068C104.585 428.21 105.271 429.105 106.175 429.753C107.078 430.392 108.178 430.712 109.473 430.712ZM126.932 406.818V433H124.656V406.818H126.932ZM141.792 433.409C139.96 433.409 138.374 432.983 137.036 432.131C135.698 431.27 134.663 430.081 133.93 428.564C133.205 427.038 132.843 425.283 132.843 423.297C132.843 421.32 133.205 419.564 133.93 418.03C134.663 416.487 135.673 415.281 136.96 414.412C138.255 413.534 139.751 413.095 141.447 413.095C142.512 413.095 143.539 413.291 144.528 413.683C145.516 414.067 146.403 414.659 147.187 415.46C147.98 416.253 148.606 417.254 149.066 418.464C149.526 419.666 149.757 421.089 149.757 422.734V423.859H134.416V421.852H147.43C147.43 420.591 147.174 419.457 146.663 418.452C146.16 417.437 145.457 416.636 144.553 416.048C143.658 415.46 142.623 415.166 141.447 415.166C140.203 415.166 139.107 415.499 138.161 416.163C137.215 416.828 136.474 417.706 135.937 418.797C135.408 419.888 135.14 421.081 135.132 422.376V423.578C135.132 425.138 135.4 426.501 135.937 427.669C136.482 428.828 137.254 429.727 138.251 430.366C139.248 431.006 140.428 431.325 141.792 431.325C142.721 431.325 143.535 431.18 144.234 430.891C144.941 430.601 145.533 430.213 146.011 429.727C146.497 429.233 146.863 428.692 147.11 428.104L149.271 428.807C148.972 429.634 148.482 430.396 147.801 431.095C147.127 431.794 146.283 432.357 145.269 432.783C144.264 433.2 143.105 433.409 141.792 433.409ZM63.725 477H61.2193L70.7435 450.818H73.3003L82.8244 477H80.3187L72.1114 453.925H71.9324L63.725 477ZM65.5276 466.964H78.5162V469.112H65.5276V466.964ZM94.8082 477.409C93.1974 477.409 91.7869 476.983 90.5767 476.131C89.3665 475.278 88.4205 474.089 87.7386 472.564C87.0653 471.038 86.7287 469.261 86.7287 467.233C86.7287 465.213 87.0653 463.445 87.7386 461.928C88.4205 460.402 89.3707 459.217 90.5895 458.374C91.8082 457.521 93.2273 457.095 94.8466 457.095C96.0398 457.095 97.0327 457.308 97.8253 457.734C98.6179 458.152 99.2528 458.672 99.7301 459.294C100.207 459.916 100.578 460.521 100.842 461.109H101.047V450.818H103.335V477H101.111V473.357H100.842C100.578 473.953 100.203 474.567 99.7173 475.197C99.2315 475.82 98.5881 476.344 97.7869 476.77C96.9943 477.196 96.0014 477.409 94.8082 477.409ZM95.0767 475.325C96.3466 475.325 97.429 474.98 98.3239 474.29C99.2188 473.591 99.9006 472.632 100.369 471.413C100.847 470.186 101.085 468.78 101.085 467.195C101.085 465.626 100.851 464.241 100.382 463.04C99.9134 461.83 99.2315 460.884 98.3366 460.202C97.4418 459.511 96.3551 459.166 95.0767 459.166C93.7642 459.166 92.6563 459.524 91.7528 460.24C90.858 460.947 90.1761 461.906 89.7074 463.116C89.2472 464.327 89.017 465.686 89.017 467.195C89.017 468.72 89.2514 470.097 89.7202 471.324C90.1889 472.551 90.8707 473.527 91.7656 474.251C92.669 474.967 93.7727 475.325 95.0767 475.325ZM117.786 477.409C116.176 477.409 114.765 476.983 113.555 476.131C112.345 475.278 111.399 474.089 110.717 472.564C110.043 471.038 109.707 469.261 109.707 467.233C109.707 465.213 110.043 463.445 110.717 461.928C111.399 460.402 112.349 459.217 113.568 458.374C114.786 457.521 116.205 457.095 117.825 457.095C119.018 457.095 120.011 457.308 120.803 457.734C121.596 458.152 122.231 458.672 122.708 459.294C123.186 459.916 123.556 460.521 123.82 461.109H124.025V450.818H126.313V477H124.089V473.357H123.82C123.556 473.953 123.181 474.567 122.695 475.197C122.21 475.82 121.566 476.344 120.765 476.77C119.972 477.196 118.98 477.409 117.786 477.409ZM118.055 475.325C119.325 475.325 120.407 474.98 121.302 474.29C122.197 473.591 122.879 472.632 123.347 471.413C123.825 470.186 124.063 468.78 124.063 467.195C124.063 465.626 123.829 464.241 123.36 463.04C122.891 461.83 122.21 460.884 121.315 460.202C120.42 459.511 119.333 459.166 118.055 459.166C116.742 459.166 115.634 459.524 114.731 460.24C113.836 460.947 113.154 461.906 112.686 463.116C112.225 464.327 111.995 465.686 111.995 467.195C111.995 468.72 112.23 470.097 112.698 471.324C113.167 472.551 113.849 473.527 114.744 474.251C115.647 474.967 116.751 475.325 118.055 475.325Z" fill="black" fill-opacity="0.5"/>
</g>
<defs>
<filter id="filter0_d_12_2378" x="0" y="0" width="190" height="892" filterUnits="userSpaceOnUse" color-interpolation-filters="sRGB">
<feFlood flood-opacity="0" result="BackgroundImageFix"/>
<feColorMatrix in="SourceAlpha" type="matrix" values="0 0 0 0 0 0 0 0 0 0 0 0 0 0 0 0 0 0 127 0" result="hardAlpha"/>
<feOffset dy="4"/>
<feGaussianBlur stdDeviation="4"/>
<feComposite in2="hardAlpha" operator="out"/>
<feColorMatrix type="matrix" values="0 0 0 0 0 0 0 0 0 0 0 0 0 0 0 0 0 0 0.15 0"/>
<feBlend mode="normal" in2="BackgroundImageFix" result="effect1_dropShadow_12_2378"/>
<feBlend mode="normal" in="SourceGraphic" in2="effect1_dropShadow_12_2378" result="shape"/>
</filter>
</defs>
</svg>
