<svg width="190" height="176" viewBox="0 0 190 176" fill="none" xmlns="http://www.w3.org/2000/svg">
<g filter="url(#filter0_d_12_2376)">
<rect width="174" height="160" transform="translate(8 4)" fill="white"/>
<path d="M48.8005 57C48.5619 56.1307 48.2125 55.3168 47.7522 54.5582C47.292 53.7912 46.721 53.1222 46.0392 52.5511C45.3659 51.9716 44.586 51.5199 43.6997 51.196C42.8218 50.8722 41.8417 50.7102 40.7593 50.7102C39.0548 50.7102 37.5292 51.1534 36.1826 52.0398C34.836 52.9261 33.7707 54.2045 32.9866 55.875C32.211 57.5455 31.8233 59.5568 31.8233 61.9091C31.8233 64.2528 32.2153 66.2599 32.9994 67.9304C33.7835 69.6009 34.8574 70.8835 36.221 71.7784C37.5931 72.6648 39.1613 73.108 40.9255 73.108C42.5363 73.108 43.9596 72.75 45.1954 72.0341C46.4312 71.3182 47.3943 70.2955 48.0846 68.9659C48.7835 67.6364 49.1244 66.0554 49.1074 64.223L49.8744 64.4659H41.488V62.3182H51.4341V64.4659C51.4341 66.6989 50.9824 68.6293 50.0789 70.2571C49.1755 71.8849 47.9355 73.142 46.3588 74.0284C44.7821 74.9148 42.971 75.358 40.9255 75.358C38.6414 75.358 36.6429 74.8082 34.9298 73.7088C33.2167 72.6009 31.8829 71.0412 30.9284 69.0298C29.9824 67.0099 29.5093 64.6364 29.5093 61.9091C29.5093 59.8551 29.7821 58.0014 30.3275 56.348C30.873 54.6946 31.6443 53.2798 32.6414 52.1037C33.6471 50.9276 34.836 50.0284 36.2082 49.4062C37.5804 48.7756 39.0974 48.4602 40.7593 48.4602C42.1912 48.4602 43.4994 48.6861 44.6841 49.1378C45.8772 49.5895 46.9255 50.2116 47.8289 51.0043C48.7409 51.7884 49.4866 52.696 50.0662 53.7273C50.6542 54.75 51.0505 55.8409 51.2551 57H48.8005ZM65.4282 75.4091C63.7321 75.4091 62.2321 74.9787 60.9282 74.1179C59.6327 73.2571 58.6185 72.0682 57.8855 70.5511C57.1526 69.0256 56.7861 67.2656 56.7861 65.2713C56.7861 63.2599 57.1526 61.4915 57.8855 59.9659C58.6185 58.4318 59.6327 57.2386 60.9282 56.3864C62.2321 55.5256 63.7321 55.0952 65.4282 55.0952C67.1242 55.0952 68.6199 55.5256 69.9154 56.3864C71.2108 57.2472 72.225 58.4403 72.958 59.9659C73.6995 61.4915 74.0702 63.2599 74.0702 65.2713C74.0702 67.2656 73.7037 69.0256 72.9708 70.5511C72.2378 72.0682 71.2194 73.2571 69.9154 74.1179C68.6199 74.9787 67.1242 75.4091 65.4282 75.4091ZM65.4282 73.3253C66.7918 73.3253 67.9466 72.9588 68.8927 72.2259C69.8387 71.4929 70.5546 70.517 71.0404 69.2983C71.5347 68.0795 71.7819 66.7372 71.7819 65.2713C71.7819 63.8054 71.5347 62.4588 71.0404 61.2315C70.5546 60.0043 69.8387 59.0199 68.8927 58.2784C67.9466 57.5369 66.7918 57.1662 65.4282 57.1662C64.073 57.1662 62.9182 57.5369 61.9637 58.2784C61.0177 59.0199 60.2975 60.0043 59.8032 61.2315C59.3174 62.4588 59.0745 63.8054 59.0745 65.2713C59.0745 66.7372 59.3174 68.0795 59.8032 69.2983C60.2975 70.517 61.0177 71.4929 61.9637 72.2259C62.9097 72.9588 64.0645 73.3253 65.4282 73.3253ZM87.5977 75.4091C85.9017 75.4091 84.4017 74.9787 83.0977 74.1179C81.8022 73.2571 80.788 72.0682 80.0551 70.5511C79.3221 69.0256 78.9556 67.2656 78.9556 65.2713C78.9556 63.2599 79.3221 61.4915 80.0551 59.9659C80.788 58.4318 81.8022 57.2386 83.0977 56.3864C84.4017 55.5256 85.9017 55.0952 87.5977 55.0952C89.2937 55.0952 90.7895 55.5256 92.0849 56.3864C93.3804 57.2472 94.3946 58.4403 95.1275 59.9659C95.869 61.4915 96.2397 63.2599 96.2397 65.2713C96.2397 67.2656 95.8733 69.0256 95.1403 70.5511C94.4074 72.0682 93.3889 73.2571 92.0849 74.1179C90.7895 74.9787 89.2937 75.4091 87.5977 75.4091ZM87.5977 73.3253C88.9613 73.3253 90.1162 72.9588 91.0622 72.2259C92.0082 71.4929 92.7241 70.517 93.2099 69.2983C93.7042 68.0795 93.9514 66.7372 93.9514 65.2713C93.9514 63.8054 93.7042 62.4588 93.2099 61.2315C92.7241 60.0043 92.0082 59.0199 91.0622 58.2784C90.1162 57.5369 88.9613 57.1662 87.5977 57.1662C86.2426 57.1662 85.0878 57.5369 84.1332 58.2784C83.1872 59.0199 82.467 60.0043 81.9727 61.2315C81.4869 62.4588 81.244 63.8054 81.244 65.2713C81.244 66.7372 81.4869 68.0795 81.9727 69.2983C82.467 70.517 83.1872 71.4929 84.1332 72.2259C85.0792 72.9588 86.2341 73.3253 87.5977 73.3253ZM109.627 82.7727C108.289 82.7727 107.117 82.598 106.111 82.2486C105.105 81.9077 104.257 81.4389 103.567 80.8423C102.877 80.2457 102.34 79.5767 101.956 78.8352L103.823 77.608C104.104 78.1023 104.479 78.5881 104.948 79.0653C105.425 79.5426 106.043 79.9389 106.801 80.2543C107.568 80.5696 108.51 80.7273 109.627 80.7273C111.365 80.7273 112.767 80.2926 113.833 79.4233C114.906 78.554 115.443 77.2031 115.443 75.3707V70.9474H115.239C114.975 71.544 114.595 72.1406 114.101 72.7372C113.607 73.3253 112.959 73.8153 112.158 74.2074C111.365 74.5994 110.381 74.7955 109.205 74.7955C107.637 74.7955 106.243 74.4077 105.024 73.6321C103.814 72.8565 102.86 71.7486 102.161 70.3082C101.47 68.8594 101.125 67.1335 101.125 65.1307C101.125 63.1449 101.462 61.3977 102.135 59.8892C102.817 58.3807 103.767 57.2045 104.986 56.3608C106.205 55.517 107.624 55.0952 109.243 55.0952C110.445 55.0952 111.442 55.3082 112.235 55.7344C113.027 56.152 113.662 56.6719 114.139 57.294C114.625 57.9162 115.004 58.5213 115.277 59.1094H115.507V55.3636H117.732V75.5114C117.732 77.1733 117.378 78.5412 116.671 79.6151C115.963 80.6889 115 81.4815 113.781 81.9929C112.563 82.5128 111.178 82.7727 109.627 82.7727ZM109.473 72.7116C110.735 72.7116 111.813 72.4091 112.708 71.804C113.602 71.1903 114.289 70.3125 114.766 69.1705C115.243 68.0284 115.482 66.669 115.482 65.0923C115.482 63.5582 115.247 62.1989 114.779 61.0142C114.31 59.821 113.628 58.8835 112.733 58.2017C111.847 57.5114 110.76 57.1662 109.473 57.1662C108.161 57.1662 107.053 57.5199 106.149 58.2273C105.246 58.9347 104.564 59.8892 104.104 61.0909C103.644 62.2841 103.414 63.6179 103.414 65.0923C103.414 66.5923 103.648 67.9176 104.117 69.0682C104.585 70.2102 105.271 71.1051 106.175 71.7528C107.078 72.392 108.178 72.7116 109.473 72.7116ZM126.932 48.8182V75H124.656V48.8182H126.932ZM141.792 75.4091C139.96 75.4091 138.374 74.983 137.036 74.1307C135.698 73.2699 134.663 72.081 133.93 70.5639C133.205 69.0384 132.843 67.2827 132.843 65.2969C132.843 63.3196 133.205 61.5639 133.93 60.0298C134.663 58.4872 135.673 57.2812 136.96 56.4119C138.255 55.5341 139.751 55.0952 141.447 55.0952C142.512 55.0952 143.539 55.2912 144.528 55.6832C145.516 56.0668 146.403 56.6591 147.187 57.4602C147.98 58.2528 148.606 59.2543 149.066 60.4645C149.526 61.6662 149.757 63.0895 149.757 64.7344V65.8594H134.416V63.8523H147.43C147.43 62.5909 147.174 61.4574 146.663 60.4517C146.16 59.4375 145.457 58.6364 144.553 58.0483C143.658 57.4602 142.623 57.1662 141.447 57.1662C140.203 57.1662 139.107 57.4986 138.161 58.1634C137.215 58.8281 136.474 59.706 135.937 60.7969C135.408 61.8878 135.14 63.081 135.132 64.3764V65.5781C135.132 67.1378 135.4 68.5014 135.937 69.669C136.482 70.8281 137.254 71.7273 138.251 72.3665C139.248 73.0057 140.428 73.3253 141.792 73.3253C142.721 73.3253 143.535 73.1804 144.234 72.8906C144.941 72.6009 145.533 72.2131 146.011 71.7273C146.497 71.233 146.863 70.6918 147.11 70.1037L149.271 70.8068C148.972 71.6335 148.482 72.3963 147.801 73.0952C147.127 73.794 146.283 74.3565 145.269 74.7827C144.264 75.2003 143.105 75.4091 141.792 75.4091ZM63.725 119H61.2193L70.7435 92.8182H73.3003L82.8244 119H80.3187L72.1114 95.9247H71.9324L63.725 119ZM65.5276 108.964H78.5162V111.112H65.5276V108.964ZM94.8082 119.409C93.1974 119.409 91.7869 118.983 90.5767 118.131C89.3665 117.278 88.4205 116.089 87.7386 114.564C87.0653 113.038 86.7287 111.261 86.7287 109.233C86.7287 107.213 87.0653 105.445 87.7386 103.928C88.4205 102.402 89.3707 101.217 90.5895 100.374C91.8082 99.5213 93.2273 99.0952 94.8466 99.0952C96.0398 99.0952 97.0327 99.3082 97.8253 99.7344C98.6179 100.152 99.2528 100.672 99.7301 101.294C100.207 101.916 100.578 102.521 100.842 103.109H101.047V92.8182H103.335V119H101.111V115.357H100.842C100.578 115.953 100.203 116.567 99.7173 117.197C99.2315 117.82 98.5881 118.344 97.7869 118.77C96.9943 119.196 96.0014 119.409 94.8082 119.409ZM95.0767 117.325C96.3466 117.325 97.429 116.98 98.3239 116.29C99.2188 115.591 99.9006 114.632 100.369 113.413C100.847 112.186 101.085 110.78 101.085 109.195C101.085 107.626 100.851 106.241 100.382 105.04C99.9134 103.83 99.2315 102.884 98.3366 102.202C97.4418 101.511 96.3551 101.166 95.0767 101.166C93.7642 101.166 92.6563 101.524 91.7528 102.24C90.858 102.947 90.1761 103.906 89.7074 105.116C89.2472 106.327 89.017 107.686 89.017 109.195C89.017 110.72 89.2514 112.097 89.7202 113.324C90.1889 114.551 90.8707 115.527 91.7656 116.251C92.669 116.967 93.7727 117.325 95.0767 117.325ZM117.786 119.409C116.176 119.409 114.765 118.983 113.555 118.131C112.345 117.278 111.399 116.089 110.717 114.564C110.043 113.038 109.707 111.261 109.707 109.233C109.707 107.213 110.043 105.445 110.717 103.928C111.399 102.402 112.349 101.217 113.568 100.374C114.786 99.5213 116.205 99.0952 117.825 99.0952C119.018 99.0952 120.011 99.3082 120.803 99.7344C121.596 100.152 122.231 100.672 122.708 101.294C123.186 101.916 123.556 102.521 123.82 103.109H124.025V92.8182H126.313V119H124.089V115.357H123.82C123.556 115.953 123.181 116.567 122.695 117.197C122.21 117.82 121.566 118.344 120.765 118.77C119.972 119.196 118.98 119.409 117.786 119.409ZM118.055 117.325C119.325 117.325 120.407 116.98 121.302 116.29C122.197 115.591 122.879 114.632 123.347 113.413C123.825 112.186 124.063 110.78 124.063 109.195C124.063 107.626 123.829 106.241 123.36 105.04C122.891 103.83 122.21 102.884 121.315 102.202C120.42 101.511 119.333 101.166 118.055 101.166C116.742 101.166 115.634 101.524 114.731 102.24C113.836 102.947 113.154 103.906 112.686 105.116C112.225 106.327 111.995 107.686 111.995 109.195C111.995 110.72 112.23 112.097 112.698 113.324C113.167 114.551 113.849 115.527 114.744 116.251C115.647 116.967 116.751 117.325 118.055 117.325Z" fill="black" fill-opacity="0.5"/>
</g>
<defs>
<filter id="filter0_d_12_2376" x="0" y="0" width="190" height="176" filterUnits="userSpaceOnUse" color-interpolation-filters="sRGB">
<feFlood flood-opacity="0" result="BackgroundImageFix"/>
<feColorMatrix in="SourceAlpha" type="matrix" values="0 0 0 0 0 0 0 0 0 0 0 0 0 0 0 0 0 0 127 0" result="hardAlpha"/>
<feOffset dy="4"/>
<feGaussianBlur stdDeviation="4"/>
<feComposite in2="hardAlpha" operator="out"/>
<feColorMatrix type="matrix" values="0 0 0 0 0 0 0 0 0 0 0 0 0 0 0 0 0 0 0.15 0"/>
<feBlend mode="normal" in2="BackgroundImageFix" result="effect1_dropShadow_12_2376"/>
<feBlend mode="normal" in="SourceGraphic" in2="effect1_dropShadow_12_2376" result="shape"/>
</filter>
</defs>
</svg>
