<svg width="14" height="14" viewBox="0 0 14 14" fill="none" xmlns="http://www.w3.org/2000/svg">
<path d="M7 14L6.65805 13.634C5.33357 12.2596 4.24144 11.081 3.38164 10.0983C2.52185 9.11555 1.84052 8.25436 1.33764 7.51471C0.83477 6.77505 0.486111 6.11034 0.291667 5.52058C0.0972222 4.93082 0 4.3488 0 3.77451C0 2.71127 0.318487 1.81638 0.95546 1.08983C1.59243 0.363275 2.38027 0 3.31897 0C4.0431 0 4.71695 0.228758 5.34052 0.686275C5.96408 1.14379 6.51724 1.81481 7 2.69935C7.50958 1.79956 8.06848 1.12473 8.6767 0.674837C9.28492 0.224946 9.95304 0 10.681 0C11.6197 0 12.4076 0.363275 13.0445 1.08983C13.6815 1.81638 14 2.71127 14 3.77451C14 4.3488 13.9028 4.93082 13.7083 5.52058C13.5139 6.11034 13.166 6.77341 12.6647 7.50979C12.1633 8.24616 11.482 9.10735 10.6207 10.0934C9.75933 11.0794 8.66643 12.2596 7.34195 13.634L7 14ZM7 13.3137C8.30467 11.9633 9.3783 10.8069 10.2209 9.84447C11.0635 8.88205 11.733 8.04155 12.2295 7.32296C12.7259 6.60439 13.0714 5.96837 13.2658 5.41491C13.4603 4.86145 13.5575 4.31576 13.5575 3.77783C13.5575 2.84533 13.2826 2.06645 12.7328 1.44118C12.183 0.815904 11.5006 0.503268 10.6856 0.503268C10.008 0.503268 9.39202 0.724401 8.8375 1.16667C8.283 1.60893 7.73755 2.31808 7.20115 3.29412H6.79885C6.24904 2.31808 5.69701 1.60893 5.14277 1.16667C4.58853 0.724401 3.97909 0.503268 3.31444 0.503268C2.51286 0.503268 1.83381 0.815904 1.2773 1.44118C0.720785 2.06645 0.442529 2.84916 0.442529 3.78931C0.442529 4.32247 0.540824 4.86537 0.737414 5.418C0.934004 5.97065 1.27596 6.60505 1.76328 7.3212C2.25059 8.03735 2.92002 8.87582 3.77155 9.8366C4.62308 10.7974 5.69923 11.9564 7 13.3137Z" fill="black"/>
</svg>
