<svg width="14" height="15" viewBox="0 0 14 15" fill="none" xmlns="http://www.w3.org/2000/svg">
<path d="M2.33333 12.1264C3.07088 11.6303 3.80843 11.238 4.54598 10.9497C5.28352 10.6614 6.10153 10.5172 7 10.5172C7.89847 10.5172 8.71648 10.6614 9.45402 10.9497C10.1916 11.238 10.9291 11.6303 11.6667 12.1264C12.2433 11.523 12.7026 10.8318 13.0445 10.0529C13.3865 9.27394 13.5575 8.42298 13.5575 7.5C13.5575 5.67625 12.9205 4.12739 11.6466 2.85345C10.3726 1.5795 8.82376 0.942529 7 0.942529C5.17625 0.942529 3.62739 1.5795 2.35345 2.85345C1.0795 4.12739 0.442529 5.67625 0.442529 7.5C0.442529 8.42298 0.613506 9.27394 0.95546 10.0529C1.29741 10.8318 1.75671 11.523 2.33333 12.1264ZM6.99465 7.72126C6.35454 7.72126 5.81657 7.50157 5.38075 7.06218C4.94492 6.62277 4.72701 6.08302 4.72701 5.44293C4.72701 4.80281 4.94671 4.26485 5.3861 3.82902C5.8255 3.3932 6.36525 3.17529 7.00535 3.17529C7.64546 3.17529 8.18343 3.39498 8.61925 3.83437C9.05508 4.27378 9.27299 4.81353 9.27299 5.45363C9.27299 6.09374 9.05329 6.63171 8.6139 7.06753C8.1745 7.50335 7.63475 7.72126 6.99465 7.72126ZM7.00941 14.5C6.02421 14.5 5.10777 14.319 4.26008 13.9569C3.41241 13.5948 2.67151 13.0953 2.03738 12.4583C1.40327 11.8214 0.905172 11.082 0.543103 10.2403C0.181034 9.39865 0 8.48677 0 7.50471C0 6.52264 0.181034 5.6092 0.543103 4.76437C0.905172 3.91954 1.40469 3.17864 2.04167 2.54167C2.67864 1.90469 3.41797 1.40517 4.25966 1.0431C5.10135 0.681034 6.01323 0.5 6.99529 0.5C7.97736 0.5 8.89081 0.681034 9.73563 1.0431C10.5805 1.40517 11.3214 1.90469 11.9583 2.54167C12.5953 3.17864 13.0948 3.91976 13.4569 4.76501C13.819 5.61027 14 6.51879 14 7.49059C14 8.47579 13.819 9.39223 13.4569 10.2399C13.0948 11.0876 12.5953 11.8285 11.9583 12.4626C11.3214 13.0967 10.5802 13.5948 9.73499 13.9569C8.88973 14.319 7.98121 14.5 7.00941 14.5ZM7 14.0575C7.76437 14.0575 8.52874 13.92 9.2931 13.6451C10.0575 13.3702 10.728 12.9713 11.3046 12.4483C10.728 11.9923 10.0742 11.6303 9.34339 11.3621C8.61255 11.0939 7.83142 10.9598 7 10.9598C6.16858 10.9598 5.3841 11.0905 4.64655 11.352C3.909 11.6135 3.26533 11.9789 2.71552 12.4483C3.27874 12.9713 3.94253 13.3702 4.7069 13.6451C5.47126 13.92 6.23563 14.0575 7 14.0575ZM7.00282 7.27874C7.52393 7.27874 7.95881 7.10347 8.30747 6.75293C8.65613 6.40241 8.83046 5.96658 8.83046 5.44546C8.83046 4.92435 8.65519 4.48946 8.30466 4.1408C7.95413 3.79215 7.51831 3.61782 6.99718 3.61782C6.47607 3.61782 6.04119 3.79308 5.69253 4.14362C5.34387 4.49414 5.16954 4.92997 5.16954 5.45109C5.16954 5.9722 5.34481 6.40709 5.69535 6.75575C6.04587 7.10441 6.48169 7.27874 7.00282 7.27874Z" fill="black"/>
</svg>
