<svg width="16" height="15" viewBox="0 0 16 15" fill="none" xmlns="http://www.w3.org/2000/svg">
<path d="M11.5632 11.1853L11.931 10.8405L8.27586 7.39172V3.10345H7.77011V7.60776L11.5632 11.1853ZM8.004 15C6.89789 15 5.86162 14.8032 4.89522 14.4097C3.9288 14.0161 3.08148 13.4784 2.35326 12.7966C1.62507 12.1147 1.0508 11.3214 0.630483 10.4165C0.210161 9.51165 0 8.54073 0 7.50375C0 6.46677 0.209893 5.49527 0.629678 4.58927C1.04948 3.68325 1.62303 2.88889 2.35032 2.20621C3.07763 1.52351 3.92388 0.985129 4.88906 0.591078C5.85424 0.197026 6.88988 0 7.996 0C9.10211 0 10.1384 0.196775 11.1048 0.590323C12.0712 0.983887 12.9185 1.52159 13.6467 2.20343C14.3749 2.88528 14.9492 3.67864 15.3695 4.58349C15.7898 5.48835 16 6.45927 16 7.49625C16 8.53323 15.7901 9.50473 15.3703 10.4107C14.9505 11.3168 14.377 12.1111 13.6497 12.7938C12.9224 13.4765 12.0761 14.0149 11.1109 14.4089C10.1458 14.803 9.11012 15 8.004 15ZM8 14.5259C10.069 14.5259 11.8352 13.8398 13.2989 12.4677C14.7625 11.0955 15.4943 9.43966 15.4943 7.5C15.4943 5.56034 14.7625 3.90445 13.2989 2.53233C11.8352 1.1602 10.069 0.474138 8 0.474138C5.93103 0.474138 4.16475 1.1602 2.70115 2.53233C1.23755 3.90445 0.505747 5.56034 0.505747 7.5C0.505747 9.43966 1.23755 11.0955 2.70115 12.4677C4.16475 13.8398 5.93103 14.5259 8 14.5259Z" fill="black"/>
</svg>
