<svg width="118" height="137" viewBox="0 0 118 137" fill="none" xmlns="http://www.w3.org/2000/svg">
<path d="M88.0396 105.832C91.0126 105.832 93.5396 104.708 95.6208 102.46C97.7019 100.212 98.7424 97.5582 98.7424 94.4984C98.7424 91.4386 97.6954 88.8188 95.6014 86.6389C93.5073 84.4589 90.9906 83.3689 88.0513 83.3689C85.1121 83.3689 82.5628 84.4493 80.4033 86.6102C78.2439 88.7712 77.1642 91.3952 77.1642 94.4822C77.1642 97.5691 78.2428 100.233 80.3999 102.472C82.5571 104.712 85.1037 105.832 88.0396 105.832ZM87.8665 128.115C91.6942 128.115 95.1572 127.284 98.2557 125.623C101.354 123.961 103.957 121.59 106.064 118.508C103.148 116.823 100.204 115.56 97.232 114.717C94.2602 113.875 91.1696 113.454 87.96 113.454C84.7504 113.454 81.6286 113.875 78.5945 114.717C75.5605 115.56 72.6432 116.823 69.8425 118.508C71.9497 121.59 74.5236 123.961 77.5642 125.623C80.6049 127.284 84.039 128.115 87.8665 128.115ZM88.2854 137C80.105 137 73.1257 133.973 67.3475 127.92C61.5693 121.867 58.6802 114.639 58.6802 106.235C58.6802 97.6155 61.5687 90.2846 67.3457 84.2419C73.1228 78.1993 80.1316 75.1781 88.3721 75.1781C96.4947 75.1781 103.463 78.1993 109.278 84.2419C115.093 90.2846 118 97.6155 118 106.235C118 114.639 115.093 121.867 109.278 127.92C103.463 133.973 96.4658 137 88.2854 137ZM52.0118 136.861C37.1284 132.826 24.7389 123.758 14.8433 109.657C4.94778 95.556 0 79.3751 0 61.1141V20.2695L52.0118 0L104.024 20.2695V66.8479C101.623 65.7279 99.0957 64.8695 96.4417 64.2725C93.7879 63.6756 91.0873 63.3772 88.34 63.3772C76.9932 63.3772 67.3238 67.5546 59.3319 75.9094C51.3401 84.2643 47.3442 94.3727 47.3442 106.235C47.3442 111.223 48.2488 116.219 50.058 121.222C51.8673 126.224 54.5368 130.702 58.0665 134.654C57.0706 135.209 56.0504 135.637 55.0057 135.938C53.9611 136.239 52.9631 136.546 52.0118 136.861Z" fill="#33BDBE"/>
</svg>
