<svg width="116" height="130" viewBox="0 0 116 130" fill="none" xmlns="http://www.w3.org/2000/svg">
<path d="M18.2383 129.404V101.72C12.4628 96.1399 7.97924 89.6212 4.78754 82.1636C1.59585 74.7059 0 66.8459 0 58.5835C0 42.4879 5.31949 28.8067 15.9585 17.5398C26.5975 6.27286 39.5162 0.639404 54.7148 0.639404C67.3802 0.639404 78.6018 4.58282 88.3796 12.4697C98.1573 20.3565 104.515 30.6309 107.454 43.2927L115.813 78.3811C116.218 79.8834 115.965 81.2515 115.053 82.4855C114.141 83.7195 112.925 84.3365 111.405 84.3365H97.2707V106.87C97.2707 109.526 96.3778 111.8 94.592 113.691C92.8061 115.582 90.6594 116.528 88.1516 116.528H72.953V129.404H63.8339V106.87H88.1516V74.6791H105.478L98.6386 45.7071C96.2068 35.2986 90.8873 26.7947 82.6801 20.1955C74.4729 13.5964 65.1511 10.2968 54.7148 10.2968C42.0493 10.2968 31.2837 14.9377 22.4179 24.2194C13.552 33.5012 9.11913 44.8239 9.11913 58.1876C9.11913 65.0998 10.4528 71.6664 13.12 77.8873C15.7873 84.1084 19.5706 89.6382 24.4697 94.4767L27.3574 97.3739V129.404H18.2383ZM54.7148 90.7747C56.4373 90.7747 57.8811 90.1577 59.0464 88.9237C60.2116 87.6897 60.7942 86.1606 60.7942 84.3365C60.7942 82.5123 60.2116 80.9832 59.0464 79.7492C57.8811 78.5152 56.4373 77.8982 54.7148 77.8982C52.9923 77.8982 51.5484 78.5152 50.3832 79.7492C49.218 80.9832 48.6354 82.5123 48.6354 84.3365C48.6354 86.1606 49.218 87.6897 50.3832 88.9237C51.5484 90.1577 52.9923 90.7747 54.7148 90.7747ZM50.1552 70.1724H59.4263C59.4263 67.4898 59.7556 65.3168 60.4142 63.6536C61.0728 61.9904 62.4154 59.9785 64.4418 57.6178C66.2657 55.4717 68.0388 53.2988 69.7613 51.0991C71.4838 48.8993 72.3451 46.029 72.3451 42.4879C72.3451 37.9812 70.6986 34.1719 67.4056 31.0601C64.1125 27.9483 60.0343 26.3923 55.1707 26.3923C51.1178 26.3923 47.4448 27.6263 44.1518 30.0943C40.8588 32.5623 38.5537 35.7814 37.2364 39.7517L45.5956 43.4537C46.3049 41.093 47.5461 39.1883 49.3193 37.7397C51.0925 36.2911 53.0429 35.5668 55.1707 35.5668C57.3999 35.5668 59.249 36.2107 60.7182 37.4983C62.1874 38.786 62.922 40.4492 62.922 42.4879C62.922 44.7413 62.2887 46.7533 61.0222 48.5238C59.7556 50.2943 58.2611 52.0916 56.5386 53.9158C54.5121 56.1692 52.9416 58.4226 51.8271 60.676C50.7125 62.9293 50.1552 66.0948 50.1552 70.1724Z" fill="#FF3500"/>
</svg>
