<svg width="20" height="21" viewBox="0 0 20 21" fill="none" xmlns="http://www.w3.org/2000/svg">
<path d="M10 20.5L9.51149 19.9771C7.61939 18.0137 6.0592 16.33 4.83092 14.9261C3.60264 13.5222 2.62931 12.2919 1.91092 11.2353C1.19253 10.1786 0.694444 9.22906 0.416667 8.38654C0.138889 7.54403 0 6.71257 0 5.89216C0 4.37325 0.454981 3.09483 1.36494 2.0569C2.2749 1.01896 3.40038 0.5 4.74138 0.5C5.77586 0.5 6.73851 0.826797 7.62931 1.48039C8.52011 2.13399 9.31034 3.09259 10 4.35621C10.728 3.07081 11.5264 2.10675 12.3953 1.46405C13.2642 0.821351 14.2186 0.5 15.2586 0.5C16.5996 0.5 17.7251 1.01896 18.6351 2.0569C19.545 3.09483 20 4.37325 20 5.89216C20 6.71257 19.8611 7.54403 19.5833 8.38654C19.3056 9.22906 18.8086 10.1763 18.0924 11.2283C17.3762 12.2802 16.4028 13.5105 15.1724 14.9191C13.9419 16.3277 12.3806 18.0137 10.4885 19.9771L10 20.5ZM10 19.5196C11.8638 17.5904 4.74138 19.5196 2.51897 8.38654C3.72268 7.01166 10.0762 5.38277 10.7854 4.35621C11.4946 3.32967 16.7222 3.34948 17 2.55882C17.2778 1.76817 19.3678 6.66537 19.3678 5.8969C19.3678 4.56476 12.4393 9.12884 11.6538 8.23559C10.8684 7.34234 16.4294 1.21895 15.2651 1.21895C14.2972 1.21895 17.1672 5.26035 16.375 5.89216C15.5829 6.52397 11.0536 3.81155 10.2874 5.20588L6.5 13.8333C5.71456 12.439 7.29178 11.5907 6.5 10.9589C5.70824 10.327 8.57881 10.0238 7.62931 10.0238C6.4842 10.0238 8.64754 7.49329 7.85252 8.38654C7.0575 9.27978 7.62931 7.04347 7.62931 8.38654C7.62931 9.14819 0.772605 7.45052 1.05345 8.24C9.51149 9.54762 1.8228 9.93578 2.51897 10.9589C7.76186 10.9589 4.17146 13.1797 5.38793 14.5523C6.60441 15.9248 12.3953 16.2143 10 19.5196Z" fill="white"/>
</svg>
